<?xml version="1.0" encoding="UTF-8" standalone="no"?>
<!-- Created with Inkscape (http://www.inkscape.org/) -->

<svg
   width="65mm"
   height="65mm"
   viewBox="0 0 65 65"
   version="1.1"
   id="svg1"
   xml:space="preserve"
   inkscape:version="1.3 (0e150ed6c4, 2023-07-21)"
   sodipodi:docname="safari-pinned-tab.svg"
   xmlns:inkscape="http://www.inkscape.org/namespaces/inkscape"
   xmlns:sodipodi="http://sodipodi.sourceforge.net/DTD/sodipodi-0.dtd"
   xmlns="http://www.w3.org/2000/svg"
   xmlns:svg="http://www.w3.org/2000/svg"><sodipodi:namedview
     id="namedview1"
     pagecolor="#505050"
     bordercolor="#eeeeee"
     borderopacity="1"
     inkscape:showpageshadow="0"
     inkscape:pageopacity="0"
     inkscape:pagecheckerboard="0"
     inkscape:deskcolor="#d1d1d1"
     inkscape:document-units="mm"
     inkscape:zoom="0.96212121"
     inkscape:cx="81.070866"
     inkscape:cy="190.20472"
     inkscape:window-width="1366"
     inkscape:window-height="744"
     inkscape:window-x="0"
     inkscape:window-y="0"
     inkscape:window-maximized="1"
     inkscape:current-layer="layer1" /><defs
     id="defs1"><inkscape:perspective
       sodipodi:type="inkscape:persp3d"
       inkscape:vp_x="-10.949797 : 28.10786 : 1"
       inkscape:vp_y="0 : 999.99999 : 0"
       inkscape:vp_z="89.050202 : 28.10786 : 1"
       inkscape:persp3d-origin="39.050203 : 11.441193 : 1"
       id="perspective1" /></defs><g
     inkscape:label="Layer 1"
     inkscape:groupmode="layer"
     id="layer1"><path
       style="opacity:1;fill:#008980;fill-opacity:1;stroke-width:0.901999"
       d="m 23.7371,2.7207907 12.337369,7.23099 c 0.226548,0.5130863 0.956442,1.1781663 -0.0501,2.3432423 l -11.804538,7.214774 c -1.169495,0.113499 -2.383005,0.681683 -3.395966,-0.821878 L 20.761945,4.1094427 c 0.442502,-1.358317 1.270505,-2.088119 2.975155,-1.388652 z"
       id="path13"
       sodipodi:nodetypes="ccccccc" /><path
       style="opacity:1;fill:#008980;fill-opacity:1;stroke-width:0.901999"
       d="M 8.5209993,31.917432 39.533471,13.738159 c 0.923164,-0.67103 1.882827,-0.596695 2.853846,-0.290455 l 11.233976,6.853761 c 1.062169,1.06008 1.024614,2.120161 0.729271,3.180241 -0.235929,0.466801 -0.607692,0.631284 -0.976895,0.801468 L 21.826388,42.846663 c -0.604334,0.332087 -1.205721,0.498873 -1.798005,0.15507 L 8.6275893,36.111605 c -0.324784,-0.448958 -0.67417,-0.304891 -0.95854,-1.727989 0.05476,-0.788244 -0.370875,-1.505612 0.85195,-2.466184 z"
       id="path14"
       sodipodi:nodetypes="ccccccccccc" /><path
       style="opacity:1;fill:#008980;fill-opacity:1;stroke-width:0.901999"
       d="M 21.006,47.260731 39.984626,36.03069 c 1.195797,-0.847343 1.936401,-0.54753 2.60092,-0.05597 l 10.870231,6.609496 c 1.88516,1.535981 1.813217,2.303476 0.646129,3.901853 L 25.423917,62.902562 c -1.96317,0.42379 -3.553317,-0.03881 -4.596156,-1.801942 z"
       id="path15"
       sodipodi:nodetypes="cccccccc" /></g></svg>
