<?xml version="1.0" encoding="UTF-8" standalone="no"?>
<!-- Created with Inkscape (http://www.inkscape.org/) -->

<svg
   width="31"
   height="36"
   viewBox="0 0 8.2020833 9.525"
   version="1.1"
   id="svg1"
   xml:space="preserve"
   inkscape:version="1.3 (0e150ed6c4, 2023-07-21)"
   sodipodi:docname="logo.svg"
   xmlns:inkscape="http://www.inkscape.org/namespaces/inkscape"
   xmlns:sodipodi="http://sodipodi.sourceforge.net/DTD/sodipodi-0.dtd"
   xmlns="http://www.w3.org/2000/svg"
   xmlns:svg="http://www.w3.org/2000/svg"><sodipodi:namedview
     id="namedview1"
     pagecolor="#505050"
     bordercolor="#eeeeee"
     borderopacity="1"
     inkscape:showpageshadow="0"
     inkscape:pageopacity="0"
     inkscape:pagecheckerboard="0"
     inkscape:deskcolor="#d1d1d1"
     inkscape:document-units="mm"
     inkscape:zoom="7.6969697"
     inkscape:cx="30.401575"
     inkscape:cy="30.92126"
     inkscape:window-width="1366"
     inkscape:window-height="744"
     inkscape:window-x="0"
     inkscape:window-y="0"
     inkscape:window-maximized="1"
     inkscape:current-layer="layer1" /><defs
     id="defs1"><inkscape:perspective
       sodipodi:type="inkscape:persp3d"
       inkscape:vp_x="-10.949797 : -27.367139 : 1"
       inkscape:vp_y="0 : 1000 : 0"
       inkscape:vp_z="89.050203 : -27.367139 : 1"
       inkscape:persp3d-origin="39.050204 : -44.033807 : 1"
       id="perspective1" /></defs><g
     inkscape:label="Layer 1"
     inkscape:groupmode="layer"
     id="layer1"><path
       style="opacity:1;fill:#008980;fill-opacity:1;stroke-width:0.136714"
       d="M 2.9638723,0.29349055 4.8799355,1.3631228 c 0.035185,0.075898 0.148541,0.1742786 -0.00778,0.34662 L 3.0388415,2.7769767 C 2.8572123,2.7937696 2.6687477,2.8778132 2.5114287,2.6554019 L 2.5018124,0.49890428 C 2.5705355,0.29797754 2.6991291,0.1900231 2.9638723,0.29349055 Z"
       id="path13"
       sodipodi:nodetypes="ccccccc" /><path
       style="opacity:1;fill:#008980;fill-opacity:1;stroke-width:0.136714"
       d="M 0.60072578,4.6123552 5.4171379,1.9232169 c 0.1433729,-0.099261 0.2924138,-0.088266 0.4432186,-0.042966 l 1.7446999,1.0138312 c 0.1649608,0.1568105 0.1591286,0.313621 0.1132595,0.4704316 -0.036643,0.069054 -0.094378,0.093382 -0.1517173,0.1185559 L 2.667128,6.2290429 C 2.573271,6.2781649 2.4798726,6.3028379 2.3878874,6.2519839 L 0.61727977,5.2327731 C 0.56683914,5.1663631 0.51257734,5.1876741 0.46841307,4.977163 0.47691707,4.8605629 0.41081413,4.7544478 0.60072578,4.6123566 Z"
       id="path14"
       sodipodi:nodetypes="ccccccccccc" /><path
       style="opacity:1;fill:#008980;fill-opacity:1;stroke-width:0.136714"
       d="M 2.539717,6.8819872 5.4872052,5.2208019 C 5.672919,5.0954604 5.7879389,5.1398089 5.8911426,5.2125319 l 1.6882082,0.977699 C 7.8721269,6.4174382 7.8609535,6.5309685 7.679698,6.7674061 L 3.225844,9.195785 C 2.9209527,9.2584758 2.6739937,9.1900335 2.5120352,8.9292359 Z"
       id="path15"
       sodipodi:nodetypes="cccccccc" /></g></svg>
