<?xml version="1.0" encoding="UTF-8" standalone="no"?>
<!-- Created with Inkscape (http://www.inkscape.org/) -->

<svg
   width="31"
   height="36"
   viewBox="0 0 8.2020833 9.525"
   version="1.1"
   id="svg1"
   xml:space="preserve"
   inkscape:version="1.3 (0e150ed6c4, 2023-07-21)"
   sodipodi:docname="logo.svg"
   xmlns:inkscape="http://www.inkscape.org/namespaces/inkscape"
   xmlns:sodipodi="http://sodipodi.sourceforge.net/DTD/sodipodi-0.dtd"
   xmlns="http://www.w3.org/2000/svg"
   xmlns:svg="http://www.w3.org/2000/svg"><sodipodi:namedview
     id="namedview1"
     pagecolor="#505050"
     bordercolor="#eeeeee"
     borderopacity="1"
     inkscape:showpageshadow="0"
     inkscape:pageopacity="0"
     inkscape:pagecheckerboard="0"
     inkscape:deskcolor="#d1d1d1"
     inkscape:document-units="mm"
     inkscape:zoom="7.6969697"
     inkscape:cx="9.0944882"
     inkscape:cy="5.8464567"
     inkscape:window-width="1366"
     inkscape:window-height="744"
     inkscape:window-x="0"
     inkscape:window-y="0"
     inkscape:window-maximized="1"
     inkscape:current-layer="layer1" /><defs
     id="defs1"><inkscape:perspective
       sodipodi:type="inkscape:persp3d"
       inkscape:vp_x="-10.949797 : -27.367139 : 1"
       inkscape:vp_y="0 : 1000 : 0"
       inkscape:vp_z="89.050203 : -27.367139 : 1"
       inkscape:persp3d-origin="39.050204 : -44.033807 : 1"
       id="perspective1" /></defs><g
     inkscape:label="Layer 1"
     inkscape:groupmode="layer"
     id="layer1"><path
       style="opacity:1;fill:#008980;fill-opacity:1;stroke-width:0.141516"
       d="M 2.8764981,0.22802666 4.8967456,1.314978 c 0.037097,0.077127 0.1566178,0.1771002 -0.00821,0.3522327 L 2.9555447,2.7517246 C 2.7640396,2.7687859 2.5653268,2.8541943 2.399454,2.6281814 L 2.3893173,0.43676621 C 2.4617787,0.23258662 2.5973641,0.12288344 2.8764999,0.22802666 Z"
       id="path13"
       sodipodi:nodetypes="ccccccc" /><path
       style="opacity:1;fill:#008980;fill-opacity:1;stroke-width:0.141516"
       d="M 0.3848578,4.6168219 5.4631584,1.8841408 c 0.1511683,-0.1008679 0.3083132,-0.089694 0.4673181,-0.04366 l 1.8395663,1.0302472 c 0.1739304,0.1593492 0.1677808,0.3186993 0.1194188,0.4780487 -0.038636,0.07017 -0.09951,0.094892 -0.1599673,0.1204758 L 2.5636188,6.2596876 c -0.09896,0.049922 -0.1974376,0.07499 -0.2944237,0.023308 L 0.4023119,5.2472836 C 0.34912798,5.1797968 0.29191629,5.2014531 0.24535067,4.9875346 0.25431719,4.8690467 0.1846194,4.7612135 0.3848578,4.6168219 Z"
       id="path14"
       sodipodi:nodetypes="ccccccccccc" /><path
       style="opacity:1;fill:#008980;fill-opacity:1;stroke-width:0.141516"
       d="M 2.4292796,6.9232036 5.5370354,5.2351201 c 0.1958121,-0.1273712 0.3170859,-0.082304 0.425901,-0.00842 l 1.7800031,0.9935296 c 0.3086956,0.2308864 0.2969146,0.3462548 0.105804,0.5865202 L 3.1527153,9.2744624 C 2.8312457,9.3381679 2.5708582,9.2686206 2.4000932,9.0035961 Z"
       id="path15"
       sodipodi:nodetypes="cccccccc" /></g></svg>
